<?xml version="1.0" encoding="UTF-8" standalone="no"?>
<!-- Created with Inkscape (http://www.inkscape.org/) -->

<svg
   xmlns:dc="http://purl.org/dc/elements/1.1/"
   xmlns:cc="http://creativecommons.org/ns#"
   xmlns:rdf="http://www.w3.org/1999/02/22-rdf-syntax-ns#"
   xmlns:svg="http://www.w3.org/2000/svg"
   xmlns="http://www.w3.org/2000/svg"
   xmlns:sodipodi="http://sodipodi.sourceforge.net/DTD/sodipodi-0.dtd"
   xmlns:inkscape="http://www.inkscape.org/namespaces/inkscape"
   width="75"
   height="100"
   id="svg2"
   version="1.1"
   inkscape:version="0.48.3.1 r9886"
   sodipodi:docname="New document 1">
  <defs
     id="defs4" />
  <sodipodi:namedview
     id="base"
     pagecolor="#ffffff"
     bordercolor="#666666"
     borderopacity="1.0"
     inkscape:pageopacity="0.0"
     inkscape:pageshadow="2"
     inkscape:zoom="3.9517757"
     inkscape:cx="61.631003"
     inkscape:cy="34.126883"
     inkscape:document-units="px"
     inkscape:current-layer="layer1"
     showgrid="false"
     inkscape:snap-page="false"
     inkscape:snap-bbox="true"
     inkscape:bbox-paths="true"
     inkscape:bbox-nodes="true"
     inkscape:snap-bbox-edge-midpoints="true"
     inkscape:snap-bbox-midpoints="true"
     inkscape:object-paths="true"
     inkscape:snap-intersection-paths="true"
     inkscape:snap-smooth-nodes="true"
     inkscape:object-nodes="true"
     inkscape:snap-object-midpoints="true"
     inkscape:snap-midpoints="true"
     inkscape:snap-center="true"
     fit-margin-top="0"
     fit-margin-left="0"
     fit-margin-right="0"
     fit-margin-bottom="0"
     inkscape:snap-global="false"
     inkscape:window-width="1362"
     inkscape:window-height="748"
     inkscape:window-x="0"
     inkscape:window-y="18"
     inkscape:window-maximized="0" />
  <metadata
     id="metadata7">
    <rdf:RDF>
      <cc:Work
         rdf:about="">
        <dc:format>image/svg+xml</dc:format>
        <dc:type
           rdf:resource="http://purl.org/dc/dcmitype/StillImage" />
        <dc:title></dc:title>
      </cc:Work>
    </rdf:RDF>
  </metadata>
  <g
     inkscape:label="Layer 1"
     inkscape:groupmode="layer"
     id="layer1"
     transform="translate(15.28125,-2.375)">
    <rect
       style="fill:none;stroke:#e0e0e0;stroke-width:0.99999994;stroke-opacity:1"
       id="rect3883"
       width="74"
       height="24"
       x="-14.775549"
       y="77.862183" />
    <rect
       y="52.862183"
       x="-14.775549"
       height="24"
       width="74"
       id="rect3885"
       style="fill:none;stroke:#e0e0e0;stroke-width:0.99999994;stroke-opacity:1" />
    <rect
       y="27.862183"
       x="-14.775549"
       height="24"
       width="74"
       id="rect3887"
       style="fill:none;stroke:#e0e0e0;stroke-width:0.99999994;stroke-opacity:1" />
    <rect
       style="fill:none;stroke:#e0e0e0;stroke-width:0.99999994;stroke-opacity:1"
       id="rect3889"
       width="74"
       height="24"
       x="-14.775549"
       y="2.8621826" />
  </g>
  <g
     inkscape:groupmode="layer"
     id="layer2"
     inkscape:label="Layer"
     style="display:inline"
     transform="translate(15.28125,0)"
     sodipodi:insensitive="true">
    <path
       style="fill:#000000;fill-opacity:1;stroke:none"
       id="path3914"
       d="m 48.99801,13.722909 c -0.498081,-0.09985 -0.996427,-0.216366 -1.469534,-0.404513 -0.380818,-0.221156 -0.755812,-0.452801 -1.057328,-0.776661 -0.287106,-0.308682 -0.500545,-0.665144 -0.65955,-1.053617 -0.14453,-0.511854 -0.03582,-0.998404 0.155684,-1.478976 0.206079,-0.5187954 0.495386,-0.9854422 0.874235,-1.393434 0.972668,-0.9771747 2.186318,-1.9478501 3.576997,-2.0917275 0.356924,-0.027594 0.692192,0.0832 1.040658,0.1416539 0.552705,0.1424311 1.046168,0.4224715 1.52598,0.7222275 0.504869,0.2729124 0.927495,0.6418296 1.276116,1.0943849 0.354918,0.5856835 0.378992,1.2664666 0.40784,1.9313182 0.0014,0.80379 -0.137288,1.596488 -0.261734,2.387644 -0.103579,0.62193 -0.256186,1.232079 -0.423372,1.839221 -0.115787,0.39572 -0.307381,0.760966 -0.489942,1.128409 -0.749241,1.214467 -2.249611,1.67809 -3.513086,2.268787 -0.472531,0.173905 -0.984098,0.156284 -1.477299,0.220973 -0.86865,0.112963 -1.744082,0.151358 -2.618881,0.176979 -0.897243,0.0013 -1.797943,0.06099 -2.693047,-0.01247 -0.720704,-0.08242 -1.443314,-0.138744 -2.168095,-0.166275 -0.591407,0.01829 -1.16786,-0.04306 -1.749545,-0.139349 -0.319838,-0.05332 -0.64301,-0.08356 -0.967012,-0.0922 -0.1245,-0.0017 -0.249017,0.0018 -0.373475,0.005 -0.0054,0.0017 -0.01079,0.0034 -0.01618,0.0051 0,0 2.741191,-1.999368 2.741191,-1.999368 l 0,0 c 0.0039,0.0015 0.0078,0.0031 0.01163,0.0046 0.124899,0.0025 0.249446,0.0069 0.373634,0.02195 0.322734,0.03143 0.643324,0.08146 0.962455,0.13861 0.565877,0.09714 1.13496,0.10731 1.708092,0.120645 0.718779,0.04312 1.43487,0.112538 2.151258,0.184527 0.887947,0.04051 1.777459,0.01133 2.665745,-0.0074 0.877243,-0.0336 1.754292,-0.08677 2.623218,-0.218102 0.494066,-0.06086 1.002542,-0.09045 1.449263,-0.333295 1.115215,-0.541624 0.05245,-0.03034 -2.593321,1.53238 -0.0377,0.02227 0.08318,-0.03026 0.119295,-0.05503 0.114524,-0.07851 0.198284,-0.207028 0.296528,-0.302679 0.24269,-0.309707 0.370775,-0.702785 0.54301,-1.054151 0.191168,-0.597732 0.356087,-1.200087 0.479266,-1.816087 0.11743,-0.773593 0.265832,-1.542631 0.288067,-2.327595 -0.02793,-0.590458 -0.03345,-1.211736 -0.337877,-1.737463 C 51.072179,9.7679375 50.662102,9.4503555 50.199373,9.1899179 49.738227,8.9232864 49.261871,8.6686492 48.729309,8.5816642 c -0.328944,-0.05327 -0.665126,-0.1210627 -0.991915,-0.016122 -0.06421,0.024657 -0.243417,0.1280613 -0.183902,0.093583 5.027438,-2.9124659 3.275175,-2.0927648 2.371962,-1.3207546 -0.398878,0.369566 -0.745092,0.7668484 -0.936479,1.2870467 -0.195832,0.3941785 -0.327431,0.7855046 -0.257583,1.231958 0.136532,0.3493507 0.335772,0.6687097 0.595886,0.9404297 0.278912,0.274228 0.614315,0.48756 0.966602,0.655778 0.460818,0.152414 0.933197,0.301363 1.424003,0.293222 0,0 -2.719873,1.976104 -2.719873,1.976104 z"
       inkscape:connector-curvature="0" />
    <path
       style="fill:#000000;fill-opacity:1;stroke:none"
       id="path3916"
       d="m 41.122601,12.107134 c -0.0273,0.573685 -0.02067,1.148254 -0.01763,1.722375 0.0081,0.549504 -0.05127,1.099131 -0.199615,1.628256 -0.08382,0.334334 -0.226538,0.645026 -0.430321,0.921737 -0.237286,0.320476 -0.548125,0.558014 -0.882671,0.767846 -1.664406,1.345495 -2.556953,1.635689 -4.188008,2.074578 -0.540092,0.126245 -1.100435,0.156849 -1.651083,0.103589 -0.756355,-0.06336 -1.496563,-0.227016 -2.250344,-0.313858 -0.754809,-0.04052 -1.500706,-0.160384 -2.251133,-0.245478 -0.387915,-0.04368 -0.777994,-0.06372 -1.168239,-0.06399 -0.152666,-0.0056 -0.305265,0.0096 -0.457793,0.0075 -0.07367,4.01e-4 -0.03786,1.7e-5 -0.107427,0.0011 0,0 2.736318,-1.990491 2.736318,-1.990491 l 0,0 c 0.06811,2.76e-4 0.0328,3.06e-4 0.105919,-1.71e-4 0.150943,-0.0038 0.301946,0.01031 0.452848,0.01276 0.384127,0.02624 0.767841,0.05953 1.148758,0.117141 0.739788,0.109036 1.481074,0.197009 2.226266,0.259414 0.7518,0.09505 1.496555,0.249293 2.255235,0.282156 0.542526,0.0014 1.084451,-0.04464 1.606276,-0.202973 0.221935,-0.06292 0.451028,-0.11075 0.668955,-0.186806 1.044751,-0.364615 2.645195,-1.820734 -2.23907,1.352936 0.319814,-0.199436 0.664861,-0.365091 0.907909,-0.663452 0.2213,-0.232412 0.408104,-0.492579 0.499455,-0.805369 0.161932,-0.501275 0.283945,-1.015678 0.257502,-1.5481 0.003,-0.568125 0.01008,-1.136742 -0.01763,-1.704411 0,0 2.995518,-1.526293 2.995518,-1.526293 z"
       inkscape:connector-curvature="0" />
    <path
       style="fill:#000000;fill-opacity:1;stroke:none"
       id="path3918"
       d="m 30.688889,4.6885828 c -0.146026,0.6935697 -0.178597,1.4039292 -0.210627,2.109953 -0.06123,0.7411463 0.03549,1.4761151 0.104783,2.2122382 0.09222,0.73547 0.06583,1.46697 -0.0024,2.201983 -0.03435,0.708311 -0.152821,1.407031 -0.240147,2.109606 -0.09926,0.512784 -0.172673,1.034127 -0.320272,1.535956 -0.123898,0.370293 -0.302968,0.7173 -0.466971,1.070296 -0.131076,0.306586 -0.324721,0.574881 -0.53746,0.828835 -0.181646,0.163184 -0.337592,0.388267 -0.559185,0.499412 -0.975942,1.000343 -2.24373,1.838394 -3.625543,1.891326 -0.06009,0.0013 -0.121034,-0.0063 -0.180265,0.0039 -0.1084,0.01867 -0.207761,0.07337 -0.314539,0.09978 -0.18483,0.04572 -0.37216,0.06656 -0.561014,0.08675 -0.434799,0.03669 -0.871539,0.03771 -1.307564,0.03982 -0.466186,0.03525 -0.916158,-0.09326 -1.374354,-0.157606 -0.456275,-0.05615 -0.916587,-0.06398 -1.375703,-0.06974 -0.341604,3.69e-4 -0.683208,2.4e-4 -1.024783,0.0049 -0.180475,1.82e-4 -0.361064,0.008 -0.541529,0.006 -0.195464,0.02826 -0.318881,-0.03139 -0.487476,-0.121711 -0.133155,-0.07299 -0.06686,-0.0187 -0.172378,-0.190694 0,0 2.926749,-1.687835 2.926749,-1.687835 l 0,0 c -0.03575,-0.0426 -0.02858,-0.02707 0.0508,0.0073 0.132009,0.03722 0.276135,-0.0098 0.415052,0.007 0.175866,-0.0023 0.351867,0.0043 0.52775,0.0038 0.337413,0.0035 0.67495,0.0016 1.012226,0.01347 0.467478,0.01334 0.935828,0.03683 1.398828,0.106085 0.446278,0.0716 0.889586,0.1508 1.344287,0.113538 0.429864,-0.0068 0.861471,-0.01414 1.287304,-0.07932 0.357155,-0.06398 0.7048,-0.174503 1.069768,-0.187076 0.119786,-0.02209 0.173216,-0.02548 0.2844,-0.06931 0.09845,-0.0388 0.355809,-0.198207 0.204962,-0.109699 -2.820041,1.654639 -3.6821,2.171299 -2.675096,1.568204 0.08556,-0.128362 0.153521,-0.109833 0.268416,-0.198821 0.111686,-0.0865 0.163402,-0.23784 0.314151,-0.276475 0.216394,-0.228708 0.430439,-0.461133 0.581201,-0.740351 0.160585,-0.347985 0.337928,-0.685842 0.493681,-1.03624 0.167218,-0.488348 0.258695,-0.990763 0.373566,-1.494727 0.09134,-0.70112 0.221996,-1.396588 0.256041,-2.103867 0.06245,-0.716631 0.127137,-1.428513 0.02662,-2.146606 -0.06932,-0.7506495 -0.1763,-1.500641 -0.114042,-2.2562095 0.02236,-0.7080523 0.05984,-1.4160233 0.137109,-2.1204645 0,0 3.01361,-1.4733382 3.01361,-1.4733382 z"
       inkscape:connector-curvature="0" />
    <path
       style="fill:#000000;fill-opacity:1;stroke:none"
       id="path3920"
       d="m 28.928608,16.382716 c 0.492111,0.219163 0.991723,0.395578 1.521159,0.498508 0.45188,0.07545 0.910682,0.0814 1.36755,0.08293 0.296173,0.0029 0.592242,-0.0085 0.888354,-0.01015 -0.0602,0.04093 0.190582,-0.156081 0.136678,-0.12567 -0.947951,0.53481 -3.785946,2.149377 -2.833049,1.62343 0.997364,-0.550491 1.977645,-1.13138 2.966468,-1.69707 0,0 -2.640562,2.103905 -2.640562,2.103905 l 0,0 c 0.941104,-0.542964 3.779526,-2.144782 2.823313,-1.628892 -0.217532,0.117361 -2.00313,1.795724 -3.176313,1.705549 -0.29224,0.0019 -0.584536,-0.0046 -0.876735,-0.0088 -0.46612,-0.01642 -0.934148,-0.04487 -1.390284,-0.148858 -0.53976,-0.135836 -1.052565,-0.342752 -1.577453,-0.525138 0,0 2.790874,-1.869728 2.790874,-1.869728 z"
       inkscape:connector-curvature="0" />
    <path
       style="fill:#000000;fill-opacity:1;stroke:none"
       id="path3922"
       d="m 17.977419,18.704318 c -0.562961,-0.0033 -1.125945,-0.0855 -1.676122,-0.203067 -0.681728,-0.109391 -1.346246,-0.286607 -2.009543,-0.474587 -0.502314,-0.147915 -0.945871,-0.410046 -1.386525,-0.682163 -0.389014,-0.273719 -0.700384,-0.65247 -0.989523,-1.027083 -0.278763,-0.404671 -0.488567,-0.845004 -0.626141,-1.315832 -0.05544,-0.20635 -0.10459,-0.413993 -0.11857,-0.627422 -0.02761,-0.275518 0.205486,-0.490339 0.40167,-0.65363 1.006368,-0.774252 2.446736,-1.466769 3.344393,-1.972045 0.183344,-0.103201 0.432168,-0.12994 0.629322,-0.205604 0.441972,-0.160002 0.909618,-0.204312 1.375249,-0.230731 0.505845,0.04499 0.975058,0.217003 1.412796,0.467658 0.509976,0.237134 0.937819,0.587941 1.32109,0.99335 0.409829,0.429585 0.652991,0.9884 0.855246,1.539514 0.144224,0.439782 0.200835,0.900844 0.224497,1.361129 0.0042,0.453363 -0.231038,0.832024 -0.548892,1.13548 -1.359088,1.089673 -2.90314,1.946606 -4.476328,2.688588 -0.702438,0.346445 -1.491381,0.447621 -2.25547,0.579319 -0.888864,0.07755 -1.776301,0.01697 -2.649452,-0.156801 C 10.133987,19.820146 9.5181227,19.5322 8.8795982,19.32195 8.5269933,19.161624 8.1520538,19.057101 7.8375947,18.828696 7.653124,18.696593 7.573532,18.725978 7.434046,18.52148 c -0.6595548,-1.145029 1.0698015,-0.791179 2.900783,-1.705128 -0.0201,0.5632 -0.03773,1.124104 -0.09126,1.685511 -0.06726,0.591289 -0.110918,1.184839 -0.126546,1.77969 -0.002,0.08375 -0.0023,0.167512 -0.0016,0.251273 0,0 -3.0214507,1.521147 -3.0214507,1.521147 l 0,0 c 0.00897,-0.0897 0.018025,-0.179401 0.026776,-0.269127 0.058382,-0.604196 0.1064703,-1.209291 0.1660864,-1.813374 0.056803,-0.542211 0.086189,-1.082461 0.034257,-1.626892 1.0010013,-0.544607 2.0020026,-1.089214 3.0030043,-1.633821 6.48e-4,0.03211 0.0014,0.06321 0.02198,0.09242 0.06781,0.08297 0.26217,0.103714 0.329167,0.215693 0.29417,0.191264 0.641762,0.298281 0.960545,0.43953 0.610168,0.227784 1.215302,0.478658 1.864319,0.576908 0.853238,0.139169 1.71934,0.194862 2.578409,0.06202 0.761422,-0.147222 1.532118,-0.282684 2.217653,-0.667364 1.019305,-0.535313 2.700594,-1.487341 -1.92883,1.148898 -0.303536,0.172849 0.311292,-0.210013 0.517508,-0.357766 0.07222,-0.05174 0.140984,-0.108138 0.211475,-0.162207 0.120098,-0.08868 0.25849,-0.156197 0.361854,-0.263918 0.14507,-0.151186 0.226963,-0.400697 0.300267,-0.589739 -0.01126,-0.431494 -0.03413,-0.86592 -0.159895,-1.282048 -0.173247,-0.513285 -0.394706,-1.029044 -0.783141,-1.417222 -0.368815,-0.376579 -0.787145,-0.679294 -1.267844,-0.901322 -0.411,-0.197368 -0.848696,-0.341829 -1.311109,-0.308922 -0.452371,0.04642 -0.897986,0.129711 -1.321629,0.301571 -0.150851,0.05077 -0.271135,0.0865 -0.415233,0.152879 -0.06349,0.02925 -0.246265,0.132283 -0.185946,0.09696 4.656423,-2.72703 3.365655,-1.935447 2.37324,-1.379316 -0.107339,0.08527 -0.233838,0.151345 -0.338624,0.237295 -0.04601,0.03774 -0.05466,0.115953 -0.108147,0.142056 -0.01901,0.0093 -0.04125,-0.0094 -0.06187,-0.01408 -0.0047,0.192302 0.01089,0.38357 0.0525,0.571953 0.104362,0.437155 0.287816,0.837732 0.546515,1.206705 0.271547,0.343455 0.568982,0.684763 0.940494,0.922222 0.407339,0.263262 0.838702,0.48555 1.306792,0.621428 0.654714,0.189558 1.3192,0.333898 1.991038,0.448943 0.556509,0.08733 1.116977,0.163269 1.681736,0.123884 0,0 -2.719874,1.976104 -2.719874,1.976104 z"
       inkscape:connector-curvature="0" />
    <path
       style="fill:#000000;fill-opacity:1;stroke:none"
       id="path3924"
       d="m 48.170938,3.1546352 c 0.187266,0.3767588 0.457517,0.7029974 0.666137,1.0658374 0.08528,0.1076077 0.0771,0.3154043 0.232627,0.3210815 0.09528,0.012593 0.162511,0.2204134 0.193661,0.3132506 0.01335,0.055421 0.0036,0.024578 0.09662,0.1185513 0.08107,0.067814 0.09023,0.093997 0.138586,0.2036779 0.0097,0.053161 0.01214,0.1072164 0.01544,0.1610426 0,0 -3.019487,1.5396507 -3.019487,1.5396507 l 0,0 c 0.0025,-0.040243 0.0028,-0.080585 0.0066,-0.12073 0.110229,0.1522624 -0.0024,1.242e-4 -0.03262,-0.025829 -0.0704,-0.079911 -0.165582,-0.1676936 -0.188946,-0.2686689 -0.01117,-0.1176503 0.02216,-0.013891 -0.04153,-0.068753 C 46.071319,6.2590881 46.001891,6.0902638 45.929624,5.8932428 45.738731,5.5376516 45.498155,5.2089902 45.279769,4.8703979 c 0,0 2.891169,-1.7157627 2.891169,-1.7157627 z"
       inkscape:connector-curvature="0" />
    <path
       style="fill:#000000;fill-opacity:1;stroke:none"
       id="path3930"
       d="m 46.36133,39.850938 c -0.16937,-0.49192 -0.255855,-1.00349 -0.275334,-1.522034 0.0047,-0.64721 0.102849,-1.286686 0.277206,-1.9087 0.190492,-0.582718 0.498568,-1.117243 0.827775,-1.631207 0.819638,-1.116856 2.29551,-1.649349 3.420099,-2.295872 0.451249,-0.223888 0.925369,-0.357513 1.421313,-0.436484 0.36357,-0.06266 0.733279,-0.06068 1.100895,-0.06077 0.459727,-0.02804 0.901916,0.09258 1.342656,0.205159 0.476639,0.13135 0.864422,0.334795 1.170572,0.725445 0.274524,0.418019 0.428569,0.892977 0.525224,1.379673 0.09991,0.592663 0.02352,1.192319 -0.07583,1.779162 -0.103924,0.58093 -0.311086,1.130329 -0.538872,1.671867 -0.196744,0.481349 -0.525996,0.863123 -0.906389,1.207258 -1.134208,0.883579 -2.400385,1.626455 -3.731109,2.167773 -0.620784,0.249923 -1.279339,0.405616 -1.934405,0.53895 -0.615317,0.05514 -1.225232,-0.006 -1.832585,-0.09745 -0.667076,-0.08378 -1.336943,-0.163268 -1.99575,-0.29945 -0.554623,-0.09339 -1.076282,-0.306133 -1.612965,-0.464515 -0.365481,-0.109114 -0.704135,-0.279137 -1.055531,-0.421713 -0.180893,-0.133746 -0.376964,-0.223696 -0.523618,-0.395145 -0.124006,-0.07351 -0.218326,-0.190934 -0.306521,-0.30295 -0.10015,-0.110749 -0.159594,-0.23443 -0.197236,-0.377501 -6.46e-4,-0.111076 -0.05465,-0.153002 -0.104506,-0.245571 -0.07407,-0.120037 -0.07596,-0.258861 -0.10266,-0.392117 -0.06752,-0.173835 -0.126367,-0.350633 -0.160913,-0.534133 -0.0244,-0.122803 -0.03028,-0.247118 -0.0351,-0.371781 2.454185,-1.404591 2.675918,-1.981903 2.461389,-0.448949 -0.06661,0.551613 -0.191392,1.089812 -0.411533,1.600034 -0.186489,0.448071 -0.419953,0.830384 -0.837885,1.086144 -1.423711,0.902128 -2.230138,1.780148 -3.676237,1.30456 -0.471419,-0.201992 -0.859866,-0.53084 -1.172867,-0.931529 -0.287089,-0.406143 -0.496885,-0.846513 -0.620333,-1.327091 -0.09094,-0.301541 -0.156114,-0.610465 -0.248942,-0.911291 0.529856,0.966416 -0.01267,0.08753 2.477021,-1.230249 0.04174,-0.02209 -0.0082,0.09412 -0.01059,0.141287 -0.0057,0.111727 -0.0065,0.247504 -0.008,0.35859 0.01561,0.517757 -0.09631,1.016385 -0.262003,1.502775 -0.143447,0.413121 -0.378627,0.774579 -0.689274,1.079031 -1.048799,0.917609 -2.162144,1.597321 -3.492791,1.627242 -0.41344,0.0081 -0.813218,0.04827 -1.202384,-0.107477 -0.419412,-0.127378 -0.712857,-0.442111 -1.008019,-0.747475 -0.330037,-0.383086 -0.552313,-0.844781 -0.758658,-1.302702 -0.172813,-0.368409 -0.285652,-0.754818 -0.366866,-1.152041 -0.175769,-1.244545 -0.0025,-0.377195 2.47862,-1.591234 -0.004,0.256622 -0.0065,0.513255 -0.0082,0.769904 0.0057,0.40556 -0.06181,0.805271 -0.175294,1.193148 -0.117423,0.404861 -0.4037,0.691704 -0.731828,0.936782 -0.872364,0.495898 -1.733943,1.011264 -2.617091,1.487689 -0.09174,0.04949 -0.546406,0.136226 -0.632273,0.154334 -0.423631,0.08934 -0.841949,0.15415 -1.271922,0.205924 -1.006713,0.134931 -2.021626,0.05179 -3.031537,0.0093 -0.802604,-0.08231 -1.604488,-0.167757 -2.410145,-0.213884 -1.660847,-0.08359 -1.37547,0.326323 1.525816,-1.675403 0,0 -2.278093,1.658101 -2.278093,1.658101 l 0,0 c 2.328972,-1.776426 1.382499,-1.717887 3.004174,-1.594007 0.789862,0.06965 1.576406,0.171325 2.36672,0.235674 1.00264,0.04747 2.010115,0.103384 3.007194,-0.0524 0.431546,-0.06604 0.857815,-0.138014 1.280328,-0.24997 0.980497,-0.25981 2.386595,-1.209113 -1.546298,1.040664 0.33959,-0.16209 0.62693,-0.408677 0.804455,-0.745865 0.113626,-0.36183 0.229129,-0.731926 0.207237,-1.116529 -0.0023,-0.251202 -0.0047,-0.502452 -0.01486,-0.753486 3.226222,-1.728049 2.432947,-2.241513 2.529583,-1.016217 0.04465,0.381481 0.141986,0.750617 0.301491,1.101388 0.19993,0.425881 0.395913,0.863488 0.716979,1.214438 0.27739,0.273712 0.551367,0.534294 0.94322,0.627684 0.372861,0.08031 0.759362,0.03855 1.137865,0.02791 0.188576,-0.01876 0.375904,-0.03577 0.557819,-0.09295 0.05568,-0.0175 0.213844,-0.092 0.163723,-0.06209 -2.051124,1.224031 -3.046521,1.66089 -2.076569,1.22838 0.347884,-0.23044 0.597999,-0.566283 0.76654,-0.946389 0.169253,-0.455465 0.322884,-0.915085 0.287769,-1.409692 -0.0012,-0.118426 -0.02623,-0.491773 -0.0088,-0.504419 0.405055,-0.294941 2.080419,-2.518486 2.531741,-1.380219 0.06108,0.31295 0.124379,0.625392 0.221197,0.929851 0.09624,0.446828 0.280302,0.852645 0.548692,1.224707 0.29266,0.349521 0.644797,0.642628 1.087515,0.780025 1.324446,0.287042 2.428538,-0.878073 -1.234657,1.278507 0.120557,-0.06747 0.254228,-0.11036 0.372351,-0.182002 0.274964,-0.16677 0.40562,-0.486668 0.546363,-0.757732 0.248731,-0.473797 0.387032,-0.984475 0.435464,-1.517941 0.228941,-1.59111 -0.555944,-0.427635 2.567226,-2.071696 -0.0026,0.112921 -0.0023,0.226157 0.0083,0.338708 0.01971,0.169324 0.06524,0.333104 0.137075,0.48803 0.04854,0.117736 0.04121,0.233036 0.08523,0.350857 0.05692,0.103537 0.160902,0.190378 0.147888,0.318758 0.01146,0.102707 0.04546,0.177627 0.118629,0.254946 0.100653,0.10246 0.191526,0.209722 0.30549,0.298449 0.120931,0.128807 0.298353,0.206005 0.443968,0.30238 0.330718,0.157878 0.668331,0.29671 1.017681,0.409442 0.51947,0.173077 1.036193,0.357927 1.578113,0.451023 0.659409,0.121333 1.323988,0.208697 1.989934,0.28525 0.587395,0.07594 1.185352,0.120539 1.77316,0.02114 0.648161,-0.145081 1.298713,-0.307435 1.903562,-0.587688 0.894987,-0.431661 2.19811,-1.264811 -1.614736,0.980535 -0.29021,0.170901 0.896146,-0.498356 0.586836,-0.387234 0.400521,-0.289074 0.748609,-0.644331 0.969212,-1.091313 0.242649,-0.517888 0.450382,-1.052526 0.570676,-1.613168 0.105049,-0.552892 0.200387,-1.122074 0.115316,-1.684223 -0.08337,-0.441473 -0.217098,-0.875104 -0.466402,-1.253494 -0.284206,-0.323742 -0.651742,-0.478096 -1.06713,-0.580449 -0.433618,-0.103955 -0.869978,-0.167412 -1.317375,-0.13671 -0.354933,0.0067 -0.710343,0.02226 -1.0597,0.09102 -0.479333,0.103016 -0.937161,0.267555 -1.367618,0.505112 0.726526,-0.422188 1.454033,-0.842689 2.179576,-1.266563 0.06144,-0.0359 -0.126965,0.06473 -0.187215,0.102595 -0.261142,0.164123 -0.495468,0.364194 -0.695763,0.598859 -0.343831,0.487264 -0.657827,1.005419 -0.873324,1.562756 -0.199518,0.589871 -0.293741,1.204002 -0.306,1.826795 -0.0077,0.482095 0.07519,0.965762 0.262259,1.412227 0,0 -2.458648,1.372974 -2.458648,1.372974 z"
       inkscape:connector-curvature="0" />
    <path
       style="fill:#000000;fill-opacity:1;stroke:none"
       id="path3932"
       d="m 23.83673,29.830714 c -0.05881,0.68027 -8.9e-5,1.359051 0.04612,2.037701 0.114339,0.916421 0.202477,1.834599 0.248484,2.756978 0.05316,0.838559 0.01819,1.680677 0.07884,2.518452 0.05107,0.534609 0.102947,1.0847 -0.02836,1.61076 -0.169517,0.440047 -0.511387,0.777623 -0.844791,1.098881 -1.01335,0.873335 -2.197586,1.594468 -3.47573,1.99708 -0.514579,0.09871 -1.049894,0.01886 -1.570466,-0.0074 -0.542825,0.0072 -1.064519,-0.06845 -1.541823,-0.334002 -0.42395,-0.293623 -0.697054,-0.706792 -0.890969,-1.175547 -0.173862,-0.434952 -0.190413,-0.878634 -0.139998,-1.336687 0.0082,-0.06565 0.01443,-0.131563 0.02451,-0.196947 0.0066,-0.04336 0.04893,-0.407994 0.105288,-0.43498 2.603529,-1.246696 2.497167,-2.061438 2.565174,-0.957626 -0.01154,0.506827 -0.161651,0.99491 -0.357567,1.457949 -0.249025,0.537716 -0.578066,1.028572 -0.983678,1.459216 -1.056432,0.937811 -2.218463,1.739566 -3.631034,1.855137 -0.444066,-0.01124 -0.792453,-0.184123 -1.084246,-0.512179 -0.372979,-0.522697 -0.383377,-1.183259 -0.472456,-1.79618 -0.01738,-0.108663 -0.03391,-0.217463 -0.05214,-0.325986 -0.03812,-0.226932 -0.06986,-0.45847 -0.121741,-0.682845 -0.03278,-0.141779 -0.02625,-0.09829 -0.02158,-0.05815 2.290917,-1.114616 2.565523,-2.127806 2.460731,-1.013094 -0.03687,0.39225 -0.100966,0.776659 -0.176192,1.163159 -0.113965,0.473177 -0.211729,0.953916 -0.417447,1.39746 -0.753076,1.164069 -2.148586,1.772062 -3.441214,1.61877 C 9.4526208,41.915845 8.7987058,41.809206 8.1409459,41.72186 7.4541728,41.63848 6.7619625,41.620781 6.0709314,41.612081 c -0.3767253,0.0016 -0.7542132,-0.0071 -1.1305154,0.01511 0.7991084,-0.501388 1.598217,-1.002776 2.3973253,-1.504164 0,0 -2.4423974,1.435398 -2.4423974,1.435398 l 0,0 c 0.7781041,-0.532032 1.5562082,-1.064065 2.3343124,-1.596096 0.3602401,0.02073 0.7215457,0.0147 1.0820563,0.02889 0.6957501,0.02041 1.3925362,0.04731 2.0832384,0.139118 0.65737,0.09148 1.313927,0.187483 1.977886,0.218287 0.203237,-0.0025 0.278823,0.0066 0.473346,-0.03185 0.05725,-0.01133 0.114129,-0.02643 0.16844,-0.04779 0.04386,-0.01726 0.164782,-0.09155 0.124313,-0.06739 -2.100729,1.254435 -3.048341,1.787551 -2.151562,1.281911 0.310155,-0.363596 0.352233,-0.880044 0.497232,-1.319784 0.06909,-0.368385 0.14965,-0.734196 0.168021,-1.109915 0.0032,-0.0654 -0.05776,-0.159881 -0.0034,-0.196388 0.802876,-0.539301 1.664463,-0.985588 2.496695,-1.478381 0.143197,0.340491 0.05716,0.84975 0.176131,1.204768 0.08242,0.551635 0.07959,1.165286 0.42783,1.629042 0.252689,0.256216 0.573142,0.336629 0.928848,0.300675 0.163701,-0.02519 0.272279,-0.03547 0.431102,-0.08574 0.06891,-0.0218 0.263707,-0.116625 0.201808,-0.07931 -3.911653,2.358219 -2.622697,1.57417 -1.808581,1.039628 0.42256,-0.395452 0.77801,-0.843617 1.027153,-1.370577 0.209104,-0.416657 0.359325,-0.862217 0.381927,-1.331605 0.06038,-1.068515 -0.02718,-0.136652 2.512726,-1.473761 0.02624,-0.01382 -0.04577,0.03918 -0.06136,0.06441 -0.0884,0.143141 -0.125234,0.317571 -0.138861,0.482035 -0.05805,0.416156 -0.09394,0.812202 0.06532,1.215656 0.161192,0.408517 0.402428,0.770442 0.785105,1.003344 0.470433,0.200984 0.962757,0.244297 1.47152,0.244559 0.506476,0.02721 1.031297,0.08989 1.517929,-0.08861 0.950657,-0.367792 1.847839,-1.016502 -1.829842,1.139825 -0.05467,0.03206 0.112578,-0.05879 0.165321,-0.09394 0.0515,-0.03431 0.315325,-0.244302 0.35587,-0.276309 0.341774,-0.272728 0.649747,-0.598352 0.893782,-0.961832 0.216701,-0.472807 0.147816,-1.023546 0.111247,-1.528378 -0.05437,-0.844301 -1.1e-5,-1.692854 -0.05195,-2.537951 -0.04618,-0.918503 -0.123752,-1.834111 -0.257502,-2.744484 -0.05602,-0.673071 -0.116707,-1.344587 -0.125792,-2.020311 0,0 2.511081,-1.279459 2.511081,-1.279459 z"
       inkscape:connector-curvature="0" />
    <path
       style="fill:#000000;fill-opacity:1;stroke:none"
       id="path3934"
       d="m 8.4865265,37.131171 c 0.2441759,0.444608 0.4331953,0.9133 0.631921,1.379058 0.1460897,0.352939 0.2557481,0.71085 0.1977837,1.093257 -0.020493,0.04566 -0.034164,0.09506 -0.06148,0.137006 -0.062245,0.09558 -0.1793425,0.208121 -0.2770957,0.26528 C 7.9179927,40.625378 6.9777799,41.309077 5.8479769,41.707787 5.2854644,41.946554 4.69019,42.117314 4.0768439,42.11539 3.6049751,42.0943 3.1534391,41.939369 2.687697,41.866251 2.34986,41.832101 2.0310631,41.707308 1.6961271,41.652693 1.47332,41.558133 1.2816662,41.451865 1.1483536,41.245685 0.8865476,40.708101 0.9194903,40.084802 0.8848912,39.501972 0.7868002,37.979194 0.7857772,36.452644 0.7136969,34.92887 0.6617899,33.592202 0.4720621,32.267596 0.3030449,30.942391 0.1487277,30.258188 0.2556819,29.487955 0.0395292,28.819679 c -0.4427188,0.836161 0.045175,-0.09768 2.4426637,-1.196757 0.049728,-0.02279 -0.07118,0.08612 -0.089146,0.13779 -0.029407,0.08458 -0.040051,0.174911 -0.050499,0.263843 -0.040344,0.3434 -0.024366,0.520009 -0.019051,0.877454 0.1320975,1.554866 0.400306,3.094834 0.5854483,4.64448 0.1729559,1.7361 0.2985844,3.493244 0.1127029,5.234424 -0.036293,0.339963 -0.096779,0.676906 -0.1451684,1.015357 -0.2476852,1.226834 -0.6532316,2.441177 -1.3761168,3.476381 -0.4320186,0.61867 -0.6543737,0.786214 -1.1903067,1.308395 -1.5223715,1.080026 -3.3436063,2.475482 -5.2966594,2.532416 -0.72641,0.02117 -0.842837,-0.07184 -1.5280188,-0.274075 -0.229056,-0.131755 -0.476385,-0.235899 -0.687166,-0.395264 -0.977407,-0.73899 -1.498898,-1.947082 -1.765556,-3.106644 -0.07206,-0.313357 -0.106892,-0.634128 -0.160338,-0.951191 -0.113911,-1.062625 -0.186372,-2.157608 0.03923,-3.21247 0.11483,-0.536918 0.191705,-0.655896 0.400559,-1.150223 0.209543,-0.372094 0.31242,-0.596494 0.586307,-0.923295 0.158311,-0.188895 0.487161,-0.503345 0.708995,-0.632639 2.6302208,-1.532991 1.7305638,-1.287746 3.0838998,-1.602988 0.517355,-0.05026 0.9329251,0.06195 1.0756543,0.597294 0.024517,0.238813 -0.078093,0.451406 -0.2311872,0.628133 0,0 -2.5804579,1.150706 -2.5804579,1.150706 l 0,0 c 0.07202,-0.178842 0.2464848,-0.281751 0.3287418,-0.456659 -0.009,-0.371026 -0.5349448,-0.289103 -0.7763058,-0.240246 -1.052402,0.347958 -0.507063,0.194852 1.6420388,-1.078092 0.129667,-0.0768 -0.259742,0.153968 -0.380819,0.243707 -0.429824,0.318574 -0.743851,0.726397 -1.0019448,1.192626 -0.226844,0.463078 -0.316236,0.59093 -0.453031,1.100479 -0.27637,1.029451 -0.235721,2.113375 -0.139541,3.163614 0.04799,0.307863 0.07627,0.619454 0.143984,0.923586 0.243566,1.093852 0.7531738,2.240893 1.7011938,2.904953 0.201432,0.141099 0.436031,0.227623 0.654048,0.341434 0.237269,0.0581 0.4696049,0.142526 0.711808,0.174304 0.5058413,0.06637 1.022218,0.01319 1.5133962,-0.11506 0.2599629,-0.06788 0.96086,-0.446201 0.7604282,-0.267276 -0.4373947,0.390463 -0.9891718,0.630444 -1.4965002,0.924369 -0.2487389,0.144109 0.4800652,-0.31637 0.7200982,-0.474554 0.5262262,-0.479507 0.7889016,-0.673694 1.2195635,-1.247167 0.7487117,-0.996993 1.1824198,-2.188786 1.4511503,-3.394316 0.1400649,-0.888396 0.2016884,-1.128164 0.2475004,-2.032661 0.070122,-1.384423 -0.045938,-2.770235 -0.2000956,-4.144799 -0.2038377,-1.541617 -0.4870261,-3.069731 -0.6972129,-4.609928 -0.030966,-0.397381 -0.06091,-0.793569 -0.04152,-1.192563 0.00361,-0.07474 -0.041998,-0.184389 0.021837,-0.223416 2.510788,-1.534833 2.0955112,-2.194329 2.6231281,-1.250628 0.1510553,0.723304 0.06365,1.477673 0.1858147,2.206508 0.1456013,1.340996 0.3369043,2.678913 0.3695541,4.02962 0.064971,1.509649 0.066994,3.023869 0.2347127,4.527469 0.060545,0.520471 0.046414,1.094413 0.2875933,1.57121 0.095086,0.131382 0.2697052,0.187166 0.4201419,0.227716 0.323016,0.07838 0.6401554,0.182881 0.9723661,0.218327 0.4431753,0.08767 0.8816519,0.233022 1.3385569,0.209818 0.5945783,-0.05773 1.1623974,-0.239279 1.7095923,-0.47631 0.093587,-0.04103 0.188365,-0.07945 0.2807612,-0.123089 0.084248,-0.0398 0.3291656,-0.174519 0.2489432,-0.127127 C 4.6766839,42.037953 5.9420758,41.302008 6.760087,40.788889 6.9767967,40.535472 6.76789,40.141728 6.6886883,39.871044 6.5087206,39.423689 6.3391919,38.968772 6.062915,38.56946 c 0,0 2.423607,-1.438289 2.423607,-1.438289 z"
       inkscape:connector-curvature="0" />
    <path
       style="fill:#000000;fill-opacity:1;stroke:none"
       id="path3936"
       d="m 54.062162,65.775718 c -0.508806,0.175523 -1.008456,0.09291 -1.519431,-0.0136 -0.582902,-0.173833 -1.140752,-0.423912 -1.615246,-0.806887 -0.403109,-0.333653 -0.59993,-0.773841 -0.693229,-1.27606 -0.05637,-0.543724 0.183202,-1.002279 0.452608,-1.454072 0.323439,-0.535408 0.733609,-1.005431 1.181918,-1.438266 0.934175,-0.870518 2.289861,-1.3087 3.367985,-1.834568 0.12156,-0.0593 0.178103,-0.01959 0.299314,0.0124 0.362878,0.09707 0.652692,0.33503 0.894898,0.612782 0.290611,0.359191 0.495356,0.778559 0.685514,1.197127 0.27143,0.491817 0.344002,1.008983 0.286039,1.55965 -0.101603,0.718366 -0.421119,1.366498 -0.760155,1.997848 -0.382188,0.67755 -0.821479,1.321079 -1.286598,1.94392 -0.331067,0.39314 -0.718672,0.769684 -1.178122,1.012596 -2.878767,1.522016 -1.993647,1.1823 -3.44033,1.704703 -1.204653,0.324093 -2.453217,0.266402 -3.683801,0.181516 -1.433863,-0.162043 -2.851471,-0.452801 -4.257217,-0.774423 -0.896549,-0.208145 -1.802419,-0.37424 -2.716847,-0.479105 -0.22507,-0.06861 -0.513001,-0.09792 -0.656836,-0.302638 0,0 2.749893,-1.470998 2.749893,-1.470998 l 0,0 c -0.0065,-0.01042 -0.03186,-0.03068 -0.01958,-0.03128 0.148218,-0.0073 0.33859,0.215117 0.499696,0.155048 0.889922,0.149345 1.770031,0.34952 2.648856,0.553133 1.390535,0.322668 2.79433,0.62058 4.218868,0.740488 1.23095,0.06204 2.487328,0.08746 3.66731,-0.327147 1.139261,-0.486267 0.890134,-0.392494 -1.874523,1.018168 -0.119758,0.06111 0.233784,-0.133033 0.347461,-0.20482 0.313985,-0.19828 0.610135,-0.423099 0.857186,-0.702334 0.479152,-0.603695 0.913096,-1.241607 1.310928,-1.901746 0.328325,-0.59816 0.665971,-1.202317 0.771992,-1.886693 0.09649,-0.497296 0.03352,-0.952633 -0.220942,-1.397711 -0.174277,-0.38951 -0.366088,-0.781358 -0.647782,-1.105437 -0.2122,-0.214715 -0.466019,-0.399183 -0.781221,-0.392391 -0.982846,0.338373 -2.02817,1.031111 2.3406,-1.240988 0.05413,-0.02816 -0.111916,0.0488 -0.166518,0.07605 -0.223773,0.111626 -0.172597,0.08858 -0.379045,0.246839 -0.439917,0.426555 -0.897791,0.836226 -1.218718,1.368457 -0.241002,0.389815 -0.503153,0.770678 -0.516151,1.245507 0.06037,0.436018 0.214964,0.803177 0.575188,1.079776 0.452338,0.339693 0.983566,0.5643 1.536261,0.682734 0.503054,0.07967 0.985962,0.06634 1.462047,-0.137917 0,0 -2.522276,1.790334 -2.522276,1.790334 z"
       inkscape:connector-curvature="0" />
    <path
       style="fill:#000000;fill-opacity:1;stroke:none"
       id="path3944"
       d="m 37.080024,63.173323 c -0.0019,0.66245 0.03604,1.324112 0.09701,1.983594 0.08221,0.649912 0.03783,1.306143 -0.09712,1.944933 -0.107405,0.366409 -0.272568,0.821578 -0.640794,1.010928 -0.968803,0.498182 -1.951405,0.969057 -2.927108,1.453586 -0.879086,0.07849 -1.764563,7.09e-4 -2.643792,-0.04378 -1.200392,-0.03477 -2.393578,-0.140422 -3.585944,-0.276967 -0.576801,-0.07652 -1.206016,-0.121735 -1.695792,-0.462165 -0.477048,-0.428922 -0.510493,-0.98035 -0.462891,-1.583914 0.344725,-1.790291 0.867917,-3.541872 1.311688,-5.309817 0.509521,-2.01489 0.772135,-4.079916 0.651513,-6.155596 -0.07424,-0.953176 -0.231172,-1.914338 -0.636053,-2.786712 -0.04373,-0.0792 -0.106186,-0.222443 -0.189871,-0.282924 -0.01981,-0.01432 -0.05336,-0.02966 -0.07199,-0.01386 -0.0253,0.02145 -0.05535,0.110146 -0.0252,0.09628 0.896606,-0.4125 1.77117,-0.871317 2.656756,-1.306975 0,0 -2.910095,1.055764 -2.910095,1.055764 l 0,0 c 1.484513,-0.776331 2.617017,-2.432896 3.267244,-0.922875 0.358936,0.938568 0.527402,1.935354 0.564051,2.938546 0.07082,2.114407 -0.215205,4.213336 -0.705689,6.269742 -0.414291,1.721495 -0.872716,3.438544 -1.150213,5.188485 -0.04046,0.478558 -0.05984,0.943686 0.360071,1.261305 0.4763,0.255448 1.036541,0.30752 1.562081,0.389513 1.177879,0.158059 2.360149,0.243019 3.548517,0.272527 0.879128,0.03109 1.79536,0.121208 2.654533,-0.105269 -0.82784,0.431472 -1.66063,0.853577 -2.483519,1.294415 -0.06596,0.03534 0.14488,-0.04168 0.21089,-0.07693 0.266394,-0.142214 0.430868,-0.429134 0.529246,-0.701006 0.158004,-0.609318 0.240622,-1.235788 0.162487,-1.865657 -0.06492,-0.666317 -0.08948,-1.334655 -0.167985,-1.999482 0,0 2.817985,-1.265703 2.817985,-1.265703 z"
       inkscape:connector-curvature="0" />
    <path
       style="fill:#000000;fill-opacity:1;stroke:none"
       id="path3946"
       d="m 32.680047,59.748286 c 0.132667,0.452587 0.360525,0.865959 0.543433,1.29771 0.03132,0.09426 0.06955,0.194073 0.135595,0.264745 0,0 -2.751628,1.469999 -2.751628,1.469999 l 0,0 c -0.06155,-0.111111 -0.09848,-0.232388 -0.135594,-0.353497 -0.167297,-0.443111 -0.37408,-0.871399 -0.563098,-1.305236 0,0 2.771292,-1.373721 2.771292,-1.373721 z"
       inkscape:connector-curvature="0" />
    <path
       style="fill:#000000;fill-opacity:1;stroke:none"
       id="path3948"
       d="m 34.071114,57.042182 c 0.182551,0.416098 0.478407,0.760298 0.749216,1.119037 0.11195,0.149726 0.223133,0.300048 0.331273,0.452557 0,0 -2.757839,1.44722 -2.757839,1.44722 l 0,0 c -0.08539,-0.155587 -0.181896,-0.304805 -0.283748,-0.450089 -0.269767,-0.366045 -0.545382,-0.728023 -0.775274,-1.121461 0,0 2.736372,-1.447264 2.736372,-1.447264 z"
       inkscape:connector-curvature="0" />
    <path
       style="fill:#000000;fill-opacity:1;stroke:none"
       id="path3950"
       d="m 36.238912,59.653515 c 0.267418,0.394663 0.600416,0.746591 0.93279,1.08832 0.162561,0.161239 0.330513,0.317109 0.505811,0.46442 0,0 -2.716947,1.513868 -2.716947,1.513868 l 0,0 C 34.803727,62.553035 34.645651,62.387112 34.487551,62.221217 34.14436,61.861619 33.817493,61.48497 33.50254,61.100779 c 0,0 2.736372,-1.447264 2.736372,-1.447264 z"
       inkscape:connector-curvature="0" />
    <path
       style="fill:#000000;fill-opacity:1;stroke:none"
       id="path3952"
       d="m 21.909699,61.801798 c -0.01358,0.853165 0.02853,1.705189 -0.01914,2.5579 -0.06421,0.713095 -0.09914,1.512689 -0.553321,2.108337 -0.08255,0.108263 -0.188801,0.1962 -0.283201,0.294302 -1.008388,0.519188 -1.997496,1.077669 -3.025165,1.557564 -0.202023,0.09434 -0.794183,0.06903 -0.984903,0.061 -0.636296,-0.02675 -1.266385,-0.100457 -1.896681,-0.186941 -0.946715,-0.143647 -1.895365,-0.273656 -2.847304,-0.377359 -0.109273,-0.01475 -0.22008,-0.0157 -0.32761,-0.04101 0,0 2.636298,-1.664151 2.636298,-1.664151 l 0,0 c 0.0903,0.01594 0.178392,0.0425 0.270148,0.05119 0.916505,0.158125 1.835713,0.300426 2.756553,0.430898 0.629601,0.07221 1.264545,0.147584 1.900051,0.126509 1.174889,-0.03896 2.828192,-1.094756 -1.334033,1.055922 0.103265,-0.07331 0.21826,-0.132414 0.309792,-0.219935 0.52397,-0.501003 0.568451,-1.299827 0.642161,-1.970389 0.05345,-0.838764 0.03492,-1.682668 -0.06163,-2.518146 0,0 2.817985,-1.265703 2.817985,-1.265703 z"
       inkscape:connector-curvature="0" />
    <path
       style="fill:#000000;fill-opacity:1;stroke:none"
       id="path3954"
       d="m 19.968667,57.951158 c -0.05982,0.0087 -0.120363,0.01351 -0.179471,0.02623 -0.164509,0.03538 -0.310056,0.08579 -0.464174,0.154487 -0.0846,0.0377 -0.331162,0.166137 -0.248515,0.124318 2.535703,-1.28305 3.207352,-1.768014 2.260156,-1.103815 -0.296905,0.256067 -0.395308,0.392545 -0.09116,0.685607 0.390364,0.257354 0.800392,0.480143 1.15896,0.784498 0.267143,0.218919 0.407625,0.474566 0.368795,0.815945 -2.649162,1.476573 -2.095692,1.463383 -3.9182,1.377413 -0.383339,-0.01907 -0.766644,-0.03923 -1.150232,-0.05264 -0.122155,-0.0037 -0.0807,-0.03105 -0.133249,0.06669 0.898686,-0.45682 1.797371,-0.913641 2.696055,-1.370462 0,0 -2.944359,1.010761 -2.944359,1.010761 l 0,0 c 5.130454,-2.639421 1.650393,-1.522076 2.973162,-1.400081 0.374101,0.02812 0.748737,0.04932 1.123561,0.065 1.626581,0.05561 2.134189,-0.540602 -1.584311,1.312689 0.359957,0.246879 -0.01231,-0.292913 -0.106056,-0.311811 -0.37552,-0.302955 -0.8065,-0.516088 -1.183389,-0.815132 -0.304597,-0.348925 -0.48172,-0.776399 -0.09763,-1.146425 0.956765,-0.954186 0.18261,-0.219029 3.105171,-1.706644 0.306912,-0.156222 0.665739,-0.209506 1.005496,-0.211062 0,0 -2.590604,1.694425 -2.590604,1.694425 z"
       inkscape:connector-curvature="0" />
    <path
       style="fill:#000000;fill-opacity:1;stroke:none"
       id="path3956"
       d="m 12.809694,68.085571 c -0.503055,0.07476 -0.986073,0.0054 -1.450766,-0.193395 -0.609469,-0.387313 -0.969544,-1.018332 -1.345142,-1.61427 -0.4025212,-0.674052 -0.7974623,-1.358872 -0.9717691,-2.129953 -0.062753,-0.783242 0.2421324,-1.330115 0.7888444,-1.859445 1.4229797,-1.128405 2.9308077,-1.884109 4.6791697,-1.994638 0.656837,0.0062 1.193487,0.294356 1.611733,0.784507 0.419487,0.642024 0.439102,1.394626 0.394451,2.134253 -0.079,0.85871 -0.418298,1.644849 -0.824782,2.393715 -0.858149,1.470711 -2.469823,2.329445 -4.153091,2.667876 -0.881669,0.0711 -1.7731074,-0.08029 -2.6294332,-0.282672 C 7.9255962,67.744494 6.9908765,67.381295 6.142491,66.824177 5.455356,66.381984 5.0409072,65.738526 4.7240737,65.00597 4.5561016,64.523632 4.5947958,64.018455 4.6292499,63.519289 c -0.00346,-0.266514 0.064925,-0.509803 0.1635932,-0.753459 0.043755,0.03626 0.01014,-0.127401 0.046563,-0.110751 0.022135,0.01012 0.042821,0.102432 0.051909,0.126379 0.4196332,1.105669 0.4327497,-0.03403 2.7516357,-1.239273 -0.1137604,0.09557 -0.217518,0.282363 -0.2798295,0.428214 -0.1828528,0.435773 -0.2562175,0.899954 -0.3467116,1.360595 -0.1349702,0.841007 -0.3411657,1.659667 -0.6302512,2.46044 -0.1566815,0.34218 -0.2340659,0.553962 -0.4533366,0.862765 -0.15672,0.220712 -0.4611751,0.569238 -0.7056738,0.7008 -3.016131,1.622943 -2.0464315,1.388949 -3.7966389,1.693288 -1.773611,0.0727 -3.5831224,-0.128674 -5.3006581,-0.586498 -0.3999628,-0.10661 -0.7888738,-0.25105 -1.1833121,-0.376575 -1.4327299,-0.539166 -2.6595529,-1.399097 -3.410478,-2.761425 -0.435615,-0.790293 -0.419456,-1.004838 -0.608121,-1.864022 -0.114514,-1.143186 -0.06403,-2.40585 0.719675,-3.325084 0.107594,-0.126199 0.239912,-0.229026 0.3598692,-0.343539 1.260162,-0.808308 0.903421,-0.600964 3.4634511,-1.745221 0.1521971,-0.06802 0.6868782,-0.0987 0.8545347,-0.08139 0.3139285,0.03242 0.3918823,0.102111 0.6570292,0.23931 0.075088,0.08835 0.1501833,0.176683 0.2252754,0.265024 0,0 -2.6784405,1.46725 -2.6784405,1.46725 l 0,0 c -0.054463,-0.05326 -0.1089243,-0.106543 -0.1633869,-0.159816 -0.3260907,-0.12636 -0.587515,-0.152743 -0.939291,-0.08868 -0.1396061,0.02542 -0.534198,0.178233 -0.412485,0.105279 1.1683654,-0.700315 3.2227747,-1.667002 1.8235899,-1.002973 -0.1306367,0.0967 -0.2727183,0.179611 -0.3919127,0.290112 -0.8631003,0.800161 -0.9835873,2.021979 -0.9130843,3.12998 0.155394,0.813496 0.133021,1.025098 0.5367232,1.774795 0.7052601,1.309711 1.903888,2.113807 3.270295,2.62006 0.3888455,0.118417 0.7723858,0.255909 1.1665359,0.35525 1.73582,0.437491 3.5758158,0.61179 5.3545727,0.404098 1.3626345,-0.368056 1.0766012,-0.344344 -1.4708804,0.972468 -0.1429897,0.07392 0.2805222,-0.160625 0.405957,-0.261497 0.2515993,-0.202331 0.4345255,-0.441482 0.5978222,-0.717219 0.079659,-0.134509 0.1409228,-0.279094 0.2113842,-0.418641 0.2979394,-0.778199 0.5113558,-1.5725 0.6158745,-2.400909 0.088619,-0.454906 0.1063051,-0.933431 0.2887993,-1.364237 0.024664,-0.137535 0.052291,-0.303914 0.1426822,-0.417942 0.013772,-0.01737 0.046133,-0.01582 0.056196,-0.03557 0.015781,-0.03097 0.0097,-0.06884 0.014539,-0.103272 1.6325517,-0.87689 2.1437066,-2.309383 2.893712,-1.352458 0.043947,0.05606 0.1049435,0.166864 0.1147589,0.235209 0.00569,0.0396 -0.077728,0.06098 -0.060149,0.10384 -0.1141638,0.216489 -0.2263097,0.415136 -0.2289266,0.66673 -0.054059,0.452636 -0.1074108,0.916104 0.00226,1.364758 0.2759003,0.687444 0.6573761,1.270735 1.2991887,1.674662 0.8334789,0.522676 1.7431131,0.863845 2.7025251,1.081554 0.843855,0.171498 1.733442,0.319401 2.586392,0.133615 1.120613,-0.409986 0.556542,-0.218367 -2.107084,1.157197 -0.09117,0.04708 0.179653,-0.100252 0.262559,-0.160721 0.293847,-0.214318 0.491077,-0.506879 0.688572,-0.806913 0.420451,-0.701984 0.774869,-1.445271 0.875854,-2.267343 0.0496,-0.654365 0.07253,-1.335463 -0.313402,-1.902916 -0.393137,-0.410795 -0.876446,-0.59814 -1.450767,-0.553419 -0.278688,0.02945 -0.409111,0.03452 -0.684616,0.09955 -0.968763,0.228668 -2.8739841,1.341612 1.690913,-0.998966 0.103711,-0.05317 -0.199652,0.120305 -0.299479,0.180457 -0.52598,0.397215 -0.908617,0.867791 -0.903367,1.560582 0.114518,0.743692 0.514386,1.400928 0.893903,2.03909 0.351946,0.533442 0.694011,1.1278 1.28574,1.422685 0.458942,0.139923 0.923958,0.147925 1.393971,0.04607 0,0 -2.556134,1.744874 -2.556134,1.744874 z"
       inkscape:connector-curvature="0" />
    <path
       style="fill:#000000;fill-opacity:1;stroke:none"
       id="path3958"
       d="m -3.2767789,69.231511 c 0.3654603,0.16664 0.7203006,0.353834 1.0734587,0.545759 0.1251186,0.05254 0.2540877,0.09789 0.3883135,0.119841 0,0 -2.6474958,1.643533 -2.6474958,1.643533 l 0,0 c -0.137918,-0.05788 -0.2749889,-0.118491 -0.4038982,-0.194909 -0.325122,-0.195314 -0.6632322,-0.377954 -1.0333893,-0.471597 0,0 2.6230111,-1.642627 2.6230111,-1.642627 z"
       inkscape:connector-curvature="0" />
    <path
       style="fill:#000000;fill-opacity:1;stroke:none"
       id="path3960"
       d="m 1.3145796,69.248348 c 0.3914282,0.175182 0.7955508,0.341798 1.1510797,0.583788 0.1224427,0.0706 0.1988825,0.167672 0.2673635,0.286566 0,0 -2.766739,1.421882 -2.766739,1.421882 l 0,0 c -0.023843,-0.07542 -0.1052967,-0.114382 -0.1636246,-0.158471 -0.3481785,-0.207558 -0.7134994,-0.399531 -1.1110908,-0.491137 0,0 2.6230112,-1.642628 2.6230112,-1.642628 z"
       inkscape:connector-curvature="0" />
    <path
       style="fill:#000000;fill-opacity:1;stroke:none"
       id="path3962"
       d="m 48.838454,85.61515 c -0.499112,0.198285 -1.000751,0.156478 -1.51509,0.06328 -0.458393,-0.07802 -0.86427,-0.338124 -1.239034,-0.602376 -0.451232,-0.335954 -0.850716,-0.728849 -1.214303,-1.156306 -0.28935,-0.391079 -0.536835,-0.821936 -0.628316,-1.303228 -0.06179,-0.352664 0.01947,-0.687097 0.171924,-1.004404 0.174233,-0.361203 0.418495,-0.672538 0.713073,-0.94193 1.041719,-0.81657 2.346107,-1.448903 3.435389,-2.061163 0.242061,-0.07707 0.130559,-0.02596 0.336513,-0.148842 0.36966,-0.17893 0.615485,-0.200945 1.008939,-0.122793 0.437931,0.06773 0.826268,0.277807 1.18695,0.525647 0.522439,0.228677 0.9384,0.603799 1.375728,0.956021 0.378753,0.312431 0.573703,0.723482 0.624194,1.203834 -0.0172,0.516781 -0.280464,0.945089 -0.556635,1.363017 -0.254575,0.408146 -0.561972,0.779305 -0.905604,1.114988 -1.059345,0.909709 -2.272652,1.775762 -3.637054,2.108709 -0.605208,0.181942 -1.237128,0.260093 -1.859944,0.36088 -0.701864,0.116025 -1.413121,0.152274 -2.123225,0.169966 -0.665228,0.0096 -1.330533,0.0097 -1.995814,0.01253 -0.485057,0.0021 -0.970118,0.0029 -1.455178,0.0033 -0.469686,-0.01566 -0.933958,-0.119796 -1.402223,-0.172074 -0.297607,-0.03096 -0.596672,-0.0373 -0.895596,-0.0381 -0.228242,0.03093 -0.409709,-0.115232 -0.626108,-0.166408 -0.24707,-0.03544 -0.483096,-0.129053 -0.689967,-0.269902 -0.252553,-0.138218 -0.457707,-0.328607 -0.626404,-0.562789 -0.234449,-0.291239 -0.350405,-0.612995 -0.40557,-0.978414 -0.108007,-0.515238 -0.180671,-1.035339 -0.218725,-1.560245 -0.03753,-0.568956 -0.0388,-1.139432 -0.04431,-1.709367 -0.02895,-0.401282 0.0607,-0.792752 0.127994,-1.185077 0.03378,-0.174912 0.0578,-0.352292 0.06348,-0.530433 3.106809,-5.347131 2.871745,-1.638257 2.851423,-0.635198 -0.01315,0.724865 -0.01946,1.449871 -0.01664,2.174849 0.03054,0.666058 -0.03042,1.327092 -0.106497,1.987644 -0.0022,0.304282 -0.07283,0.579854 -0.181014,0.859802 -0.07229,0.08708 -0.101604,0.13251 -0.196043,0.201759 -0.0077,0.0056 -0.274759,0.167259 -0.288225,0.174947 -2.670894,1.524849 -1.931884,1.114859 -3.041083,1.729019 -0.306356,0.197696 -0.670344,0.218534 -1.02384,0.239929 -0.493144,0.0085 -0.988401,0.03603 -1.477988,-0.03032 -0.530091,-0.0789 -1.058919,-0.121163 -1.581006,-0.243087 -0.435997,-0.08101 -0.835065,-0.281891 -1.246586,-0.439265 -0.279282,-0.121169 -0.596025,-0.21314 -0.853595,-0.377812 -0.200012,-0.116673 -0.329551,-0.314013 -0.515209,-0.446695 -0.297588,-0.226137 -0.6575,-0.372531 -1.012933,-0.483792 -0.341343,-0.193578 -0.710642,-0.277379 -1.096281,-0.318418 -0.506801,0.03775 -0.995691,0.167324 -1.491871,0.267141 -0.140378,0.07573 -0.303739,0.09574 -0.446691,0.164629 -0.06068,0.02924 -0.228796,0.142143 -0.17019,0.108941 4.607122,-2.610057 3.121718,-1.941374 2.298241,-1.265649 -0.262627,0.280139 -0.275001,0.678741 -0.263688,1.042528 0.0108,0.589324 0.265777,1.053545 0.639642,1.488106 0.523902,0.502797 1.158947,0.616884 1.853996,0.657365 0.123524,-0.009 0.247774,-0.01074 0.37057,-0.02683 0.265204,-0.03475 0.505674,-0.09462 0.756546,-0.18718 0.117954,-0.04352 0.454497,-0.213612 0.3461,-0.149917 -3.17302,1.864507 -3.041641,1.78757 -2.075151,1.141548 0.576898,-0.472301 0.769213,-0.944424 0.676834,-1.674846 C 28.29034,84.060428 27.459386,83.722053 26.673772,83.4107 25.546693,83.013228 24.364053,82.878553 23.1888,82.713576 c -1.086304,-0.174305 -2.177505,-0.214234 -3.270291,-0.09605 -0.477981,0.133051 -1.427432,0.08392 -1.842621,0.343402 -0.796272,0.816038 -0.0823,0.071 2.594192,-1.496122 0.02695,-0.01578 -0.07125,0.0255 -0.07467,0.05653 -0.007,0.06277 0.04017,0.163905 0.05944,0.21526 0.38783,0.62202 0.654908,1.301444 0.877093,1.996917 0.45962,1.446276 0.57215,2.967675 0.610444,4.475492 0.01151,1.333338 -0.21244,2.648158 -0.557429,3.93121 -0.0121,0.28139 -0.211974,0.540192 -0.248734,0.814477 -0.0041,0.03079 0.03702,0.08069 0.0084,0.09282 -0.960309,0.40736 -1.942948,0.759929 -2.914422,1.139894 0,0 2.8772,-1.39785 2.8772,-1.39785 l 0,0 c -0.989968,0.476199 -1.991686,0.928703 -2.969903,1.428597 -0.02606,0.01332 0.04087,0.05911 0.0696,0.05354 0.0992,-0.01927 0.335912,-0.734662 0.358712,-0.795293 0.403304,-1.261008 0.693247,-2.557452 0.688788,-3.889831 -0.0327,-1.472115 -0.156913,-2.956162 -0.634377,-4.35958 -0.23727,-0.68134 -0.533824,-1.331635 -0.952154,-1.922739 -0.663947,-1.377936 0.92009,-1.845823 2.730691,-2.312018 0.603526,-0.08232 1.208141,-0.158016 1.814001,-0.220851 1.10477,-0.077 2.205011,-0.0205 3.298571,0.1623 1.195282,0.165347 2.39168,0.346567 3.533518,0.755278 0.894075,0.364806 1.769762,0.797018 2.089193,1.780051 0.154286,0.809368 0.04288,1.37706 -0.537271,1.990027 -1.396461,1.122886 -3.03785,2.233137 -4.876965,2.206765 -0.756686,-0.08129 -1.4492,-0.299135 -1.999027,-0.856128 -0.410088,-0.48336 -0.709805,-1.005082 -0.755196,-1.652972 -0.04691,-0.424223 -0.03861,-0.869704 0.137769,-1.265997 0.0758,-0.111177 0.119225,-0.200516 0.240038,-0.272751 1.240274,-0.74156 2.208684,-1.580197 3.545516,-1.886408 0.516694,-0.109086 1.040564,-0.237627 1.572654,-0.190518 0.394954,0.06977 0.765125,0.198737 1.127177,0.371557 0.381842,0.144833 0.763835,0.306685 1.087453,0.560736 0.161994,0.135377 0.304703,0.295691 0.489293,0.401692 0.27283,0.118047 0.535718,0.258287 0.817326,0.355391 0.393174,0.164482 0.789507,0.32525 1.211065,0.402165 0.510003,0.110275 1.031701,0.143606 1.547826,0.216693 0.485999,0.02369 0.974867,0.01272 1.459396,-0.03308 0.342768,-0.05062 0.656828,-0.15093 0.951951,-0.337575 1.055993,-0.524192 0.236289,-0.12162 -2.427179,1.417623 -0.04753,0.02746 0.09463,-0.05565 0.141875,-0.08359 0.12127,-0.07173 0.244681,-0.119322 0.365558,-0.189606 0.244338,-0.09942 0.261144,-0.488831 0.296355,-0.708329 0.08798,-0.653603 0.19726,-1.304471 0.153542,-1.967431 0.003,-0.719674 -0.003,-1.439374 -0.01513,-2.158953 -0.03216,-1.712455 -0.169625,-0.685219 2.855814,-2.28288 0.0083,-0.0044 -0.0046,0.0182 -0.0068,0.0273 -0.0082,0.196156 -0.0182,0.391118 -0.05586,0.584565 -0.08659,0.375196 -0.192658,0.75617 -0.186974,1.142562 -0.0018,0.564159 -4.84e-4,1.128618 0.02985,1.69214 0.0375,0.515478 0.09331,1.029471 0.227047,1.530372 0.0432,0.314474 0.128947,0.588327 0.342459,0.832697 0.151518,0.195615 0.344881,0.331053 0.560769,0.449227 0.21092,0.09493 0.427074,0.150952 0.651075,0.205802 0.195512,0.06862 0.367754,0.11755 0.577517,0.09607 0.299321,0.01258 0.597829,0.04136 0.894883,0.0799 0.456327,0.06621 0.912418,0.159053 1.375917,0.141289 0.480166,0.0012 0.960326,0.0036 1.440479,0.0074 0.659893,0.0041 1.32,0.0071 1.979672,-0.01375 0.700175,-0.0278 1.400519,-0.07298 2.090999,-0.199582 0.627261,-0.112442 1.263545,-0.199231 1.864115,-0.422103 1.10435,-0.457458 0.292572,-0.131391 -2.364026,1.40809 -0.04618,0.02677 0.08921,-0.05884 0.135925,-0.08467 0.225028,-0.124427 0.04627,0.0077 0.257619,-0.164573 0.04676,-0.03811 0.09313,-0.07669 0.139696,-0.115042 0.370355,-0.296173 0.696039,-0.64512 0.956068,-1.043029 0.243036,-0.37929 0.533339,-0.726151 0.627837,-1.180089 0.02031,-0.400714 -0.176794,-0.72472 -0.479065,-0.97899 -0.422195,-0.357387 -0.853146,-0.686434 -1.358182,-0.922969 -0.346331,-0.20789 -0.715743,-0.364302 -1.123849,-0.393004 -0.320633,-0.0081 -0.614742,0.120513 -0.894059,0.269907 -0.977388,0.411439 -2.477932,1.385412 2.225379,-1.330584 0.06127,-0.03538 -0.119195,0.07626 -0.178793,0.114392 -0.253189,0.165072 -0.126732,0.08629 -0.379103,0.236793 -0.295563,0.236715 -0.566274,0.482064 -0.751166,0.820201 -0.140273,0.269119 -0.294641,0.513304 -0.260206,0.832899 0.03531,0.434765 0.268084,0.809772 0.519422,1.1578 0.348446,0.405336 0.732804,0.776348 1.176345,1.078275 0.357903,0.227607 0.729397,0.438106 1.158278,0.488461 0.500753,0.06111 0.977403,0.0049 1.437357,-0.216612 0,0 -2.516081,1.978549 -2.516081,1.978549 z"
       inkscape:connector-curvature="0" />
    <path
       style="fill:#000000;fill-opacity:1;stroke:none"
       id="path3964"
       d="m 40.671366,86.727711 c 0.116863,0.379989 0.288927,0.753138 0.52844,1.071936 0.02556,0.02975 0.05039,0.06013 0.07669,0.08923 0.01947,0.02153 0.03331,0.05253 0.06053,0.06259 0.03481,0.01286 0.05633,-0.126101 0.02349,-0.108833 -0.921232,0.484259 -1.82278,1.005075 -2.73417,1.507613 0,0 2.990342,-1.188834 2.990342,-1.188834 l 0,0 c -1.735371,0.97062 -2.335063,2.44628 -3.170163,1.260307 -0.233206,-0.353653 -0.409023,-0.742254 -0.569782,-1.133429 0,0 2.794618,-1.560588 2.794618,-1.560588 z"
       inkscape:connector-curvature="0" />
    <path
       style="fill:#000000;fill-opacity:1;stroke:none"
       id="path3966"
       d="m 42.407065,86.539819 c 0.413244,0.217153 0.78173,0.508714 1.098435,0.85001 0.105884,0.120734 0.207748,0.245391 0.29907,0.3776 0.0099,0.0144 0.03265,0.0608 0.0291,0.04368 -0.0099,-0.04756 -0.03238,-0.09159 -0.04857,-0.137377 0,0 -2.613084,1.891788 -2.613084,1.891788 l 0,0 c -0.149218,-0.160812 -0.248638,-0.349239 -0.389787,-0.518504 -0.294227,-0.308591 -0.623546,-0.587961 -1.034389,-0.725661 0,0 2.659226,-1.78153 2.659226,-1.78153 z"
       inkscape:connector-curvature="0" />
    <path
       style="fill:#000000;fill-opacity:1;stroke:none"
       id="path3968"
       d="m 46.935974,76.675868 c 0.277665,0.272128 0.577977,0.510361 0.837468,0.802101 0.06007,0.0689 0.117675,0.139901 0.170408,0.214563 0,0 -2.789375,1.625054 -2.789375,1.625054 l 0,0 c -0.03526,-0.06697 -0.07964,-0.128525 -0.125232,-0.188781 -0.229881,-0.286021 -0.513643,-0.513686 -0.80056,-0.740598 0,0 2.707291,-1.712339 2.707291,-1.712339 z"
       inkscape:connector-curvature="0" />
    <path
       style="fill:#000000;fill-opacity:1;stroke:none"
       id="path3970"
       d="m 49.232202,95.655806 c -0.424369,0.0015 -0.856131,-0.05737 -1.257058,-0.199012 -0.494807,-0.210422 -0.814948,-0.451583 -1.122816,-0.893815 -0.28748,-0.495527 -0.453154,-1.043646 -0.545837,-1.605597 -0.103488,-0.603953 5.1e-4,-1.191886 0.228378,-1.752636 0.767264,-1.502341 2.198456,-1.834063 3.741403,-2.706093 0.567738,-0.173364 1.108779,-0.06909 1.666282,0.07409 0.582815,0.179223 1.052939,0.544482 1.468443,0.977615 0.379782,0.422405 0.52043,0.953363 0.551729,1.507662 0.0063,0.574136 -0.188921,1.076409 -0.526186,1.530387 -0.966557,1.118458 -2.451018,1.673213 -3.694734,2.378258 -0.291328,0.16515 -0.436872,0.197218 -0.757861,0.30696 -0.952618,0.361119 -1.969323,0.460399 -2.97771,0.524986 -1.043376,0.01441 -2.080943,0.121287 -3.121343,0.191136 -0.731279,0.01091 -1.448834,0.0737 -2.166912,0.205775 -0.262442,0.0083 -0.522563,-0.03781 -0.776682,-0.09934 -0.172543,-0.05487 -0.190152,-0.295322 -0.182455,-0.445248 0,0 2.989109,-1.196419 2.989109,-1.196419 l 0,0 c -0.03299,-0.02289 -0.273177,-0.200479 -0.159874,-0.192777 0.219913,0.04563 0.443577,0.06684 0.666706,0.02656 0.708562,-0.10316 1.422315,-0.103838 2.13619,-0.14506 1.036078,-0.06925 2.071114,-0.150155 3.109132,-0.185256 1.003766,-0.0866 2.006706,-0.22141 2.944197,-0.613645 1.04956,-0.448916 2.702376,-1.5015 -1.631405,1.035003 -0.279723,0.163718 0.990394,-0.583188 0.709095,-0.550652 0.347745,-0.378789 0.60968,-0.793621 0.615173,-1.327394 0.02183,-0.478293 -0.105595,-0.936811 -0.428619,-1.299825 -0.385543,-0.389637 -0.823236,-0.701732 -1.366262,-0.830507 -0.527755,-0.114378 -1.052697,-0.133372 -1.554948,0.100955 0.836196,-0.489554 1.676072,-0.972873 2.508585,-1.468662 0.06609,-0.03936 -0.144398,0.05637 -0.208497,0.09888 -0.283404,0.187994 -0.476803,0.52686 -0.676109,0.790381 -0.259183,0.494313 -0.390056,1.023472 -0.307738,1.584154 0.07744,0.517378 0.210974,1.020378 0.480906,1.474405 0.259437,0.356375 0.59927,0.574557 1.020056,0.709322 0.400989,0.09465 0.806563,0.143163 1.219235,0.112516 0,0 -2.591573,1.882889 -2.591573,1.882889 z"
       inkscape:connector-curvature="0" />
    <path
       style="fill:#000000;fill-opacity:1;stroke:none"
       id="path3972"
       d="m 49.103614,85.783462 c 0.271691,0.267604 0.553732,0.525281 0.824009,0.79578 0.09761,0.05805 0.04879,0.03296 0.1459,0.07638 0,0 -2.69915,1.742966 -2.69915,1.742966 l 0,0 c -0.120962,-0.09058 -0.05893,-0.03988 -0.184375,-0.154159 -0.249799,-0.286074 -0.528235,-0.539972 -0.81402,-0.78947 0,0 2.727636,-1.671497 2.727636,-1.671497 z"
       inkscape:connector-curvature="0" />
    <path
       style="fill:#000000;fill-opacity:1;stroke:none"
       id="path3974"
       d="m 51.908323,85.351968 c 0.347423,0.442739 0.703157,0.87713 1.01263,1.347864 0.103046,0.184589 0.237633,0.346754 0.357974,0.519688 0,0 -2.750133,1.614303 -2.750133,1.614303 l 0,0 c -0.116622,-0.176984 -0.243592,-0.347573 -0.339934,-0.537107 -0.293756,-0.456205 -0.630874,-0.88284 -1.008173,-1.27325 0,0 2.727636,-1.671498 2.727636,-1.671498 z"
       inkscape:connector-curvature="0" />
    <path
       style="fill:#000000;fill-opacity:1;stroke:none"
       id="path3976"
       d="m 34.747172,96.938775 c -0.3201,-0.597765 -0.103803,-1.171639 0.211492,-1.713801 0.455866,-0.721425 1.113425,-1.262434 1.780296,-1.778155 1.572251,-1.167582 2.926967,-2.030965 4.770041,-2.229136 0.567301,0.0038 1.117271,0.119103 1.595904,0.428285 0.382,0.323228 0.588196,0.725752 0.637495,1.218055 0.03011,0.459042 -0.103416,0.86942 -0.355174,1.246408 -1.058947,1.134678 -2.505145,1.922102 -3.977896,2.391718 -0.691942,0.214659 -1.421112,0.103295 -2.131266,0.06638 -0.900187,-0.08373 -1.790042,-0.238549 -2.685306,-0.358887 -0.805188,-0.06961 -1.589131,-0.271237 -2.382501,-0.413728 -0.587431,-0.131066 -1.163867,-0.324822 -1.656535,-0.676356 -0.341088,-0.288548 -0.419047,-0.673299 -0.368157,-1.096602 0.354796,-1.444207 0.865897,-0.88979 3.079019,-1.947142 0.116219,0.346017 -0.0023,0.699435 -0.06732,1.043429 -0.08347,0.39322 -0.186698,0.781108 -0.363854,1.142844 -0.653901,1.108943 -2.679236,1.772536 -3.376029,2.163585 -0.452372,0.05232 -0.900668,0.09222 -1.351078,0.16272 -0.595755,0.05726 -1.089644,-0.122034 -1.582112,-0.438642 -0.465068,-0.317059 -0.8099,-0.74612 -1.037797,-1.256309 -0.16026,-0.344862 -0.194212,-0.684404 -0.128083,-1.053276 0.03278,-0.197062 0.106061,-0.392955 0.108923,-0.594158 3.82223,-4.987076 3.02455,-1.713911 2.679019,-0.708028 -0.140854,0.464321 -0.239756,0.943992 -0.432432,1.390299 -0.130651,0.27673 -0.324334,0.514229 -0.593439,0.667384 -2.964674,1.687276 -1.908099,1.331443 -3.316773,1.772471 -0.987362,0.299139 -1.996464,0.255947 -3.003154,0.107092 -1.294346,-0.254685 -2.574803,-0.568761 -3.849794,-0.905849 -1.148373,-0.321838 -2.309792,-0.592356 -3.448845,-0.946677 -0.351304,-0.09723 -0.695907,-0.200644 -0.913531,-0.509537 -0.721217,-1.093777 2.148365,-2.475845 2.931297,-1.517116 0,0 -2.739257,1.665552 -2.739257,1.665552 l 0,0 c -0.974904,-0.810555 3.521076,-0.714599 2.587338,-1.777477 0.138499,0.238705 0.512212,0.25843 0.72696,0.378618 1.10388,0.389044 2.243147,0.662207 3.369657,0.976367 1.27652,0.326632 2.560348,0.62653 3.858929,0.852849 1.002008,0.113297 2.002454,0.0944 2.961139,-0.258709 1.227008,-0.486298 0.347902,-0.157441 -2.122636,1.306657 -0.07001,0.0415 0.145826,-0.07244 0.217032,-0.111859 0.179243,-0.09922 0.337233,-0.20646 0.436309,-0.392089 0.248128,-0.405539 0.337486,-0.880487 0.456715,-1.336397 0.391656,-1.551401 0.384973,-0.789767 3.090566,-2.070887 -0.06425,0.198594 -0.04439,0.425362 -0.120627,0.623588 -0.09492,0.330739 -0.124027,0.551012 0.01444,0.885243 0.188097,0.458742 0.502743,0.829658 0.926934,1.092145 0.46122,0.25621 0.929841,0.352213 1.456911,0.25643 0.443186,-0.07093 0.908657,-0.06107 1.326698,-0.239311 -0.866938,0.500717 -1.737094,0.995904 -2.600814,1.50215 -0.04126,0.02418 0.09039,-0.03242 0.132362,-0.05533 0.154904,-0.08458 0.319005,-0.187616 0.418203,-0.334783 0.221451,-0.315216 0.323321,-0.672248 0.419266,-1.042136 0.04375,-0.283981 0.133908,-0.563748 0.133038,-0.848973 3.746276,-2.007688 3.14879,-2.368174 2.593053,-1.031554 -0.109354,0.293566 -0.08957,0.571155 0.175187,0.770611 0.46822,0.307609 0.997018,0.486795 1.546458,0.591786 0.783919,0.154135 1.564913,0.3263 2.360769,0.410844 0.888257,0.128299 1.77487,0.274328 2.67153,0.332813 0.703002,0.02683 1.416747,0.08655 2.083341,-0.188854 1.029499,-0.444945 2.458329,-1.355473 -1.976664,1.223862 -0.344551,0.200386 0.897589,-0.569237 0.534307,-0.423338 0.293843,-0.27219 0.45986,-0.62183 0.458038,-1.028011 -0.0037,-0.422007 -0.137873,-0.689606 -0.478,-0.952051 -0.44865,-0.23943 -0.95105,-0.316392 -1.456521,-0.269868 -0.334968,0.04893 -0.661426,0.1043 -0.98204,0.218218 -0.113809,0.04044 -0.43792,0.201069 -0.335257,0.137447 0.382981,-0.237342 3.416003,-2.007839 1.983978,-1.171603 -0.657914,0.492721 -1.339919,0.983733 -1.807658,1.67308 -0.282564,0.38446 -0.612435,0.867129 -0.337301,1.342868 0,0 -2.754789,1.634828 -2.754789,1.634828 z"
       inkscape:connector-curvature="0" />
    <path
       style="fill:#000000;fill-opacity:1;stroke:none"
       id="path3978"
       d="m 16.46872,89.852348 c -0.198558,0.981612 -0.590279,1.895595 -1.084247,2.761167 -0.503699,0.823591 -1.182271,1.503381 -2.018871,1.989877 -3.285314,1.910459 -2.31123,1.4624 -4.3660427,2.312268 -2.6214996,0.902229 -5.3498936,1.447095 -8.0684361,1.965008 -0.97415418,0.125936 -1.9654042,0.344382 -2.9556072,0.28321 -0.2301617,-0.0142 -0.6843775,-0.07432 -0.8832152,-0.267687 -0.075514,-0.07344 -0.092106,-0.189487 -0.1381589,-0.284229 0.026408,-0.113247 0.052815,-0.226493 0.079223,-0.339739 0,0 2.90478347,-1.275741 2.90478347,-1.275741 l 0,0 c -0.0641006,0.02668 -0.12820216,0.05336 -0.19230324,0.08005 -0.00525,0.03002 -0.0377797,0.06898 -0.0157646,0.09006 0.15460486,0.148011 0.55447739,0.192726 0.71072445,0.20391 0.93619562,0.06701 1.87548732,-0.108125 2.79740082,-0.232583 2.7355859,-0.509671 5.481523,-1.067299 8.0887812,-2.062236 1.558435,-0.696507 1.377151,-0.663483 -0.786065,0.628185 -0.225738,0.134789 0.456752,-0.262007 0.671964,-0.413038 0.545935,-0.383124 0.994845,-0.868353 1.355513,-1.427397 0.493533,-0.800708 0.896807,-1.666877 1.028867,-2.607242 0,0 2.871454,-1.403839 2.871454,-1.403839 z"
       inkscape:connector-curvature="0" />
    <path
       style="fill:#000000;fill-opacity:1;stroke:none"
       id="path3980"
       d="m 17.808097,96.157643 c 0.239097,0.385503 0.39748,0.810996 0.522413,1.244862 0.05121,0.163851 0.07201,0.335358 0.09986,0.503723 0,0 -2.802687,1.580955 -2.802687,1.580955 l 0,0 c -0.08397,-0.178884 -0.05525,-0.373195 -0.102783,-0.565476 -0.08906,-0.400862 -0.21752,-0.799875 -0.471589,-1.129235 0,0 2.75479,-1.634829 2.75479,-1.634829 z"
       inkscape:connector-curvature="0" />
    <path
       style="fill:#000000;fill-opacity:1;stroke:none"
       id="path3982"
       d="m 21.475793,96.157643 c 0.309682,0.416597 0.581455,0.85433 0.809189,1.320395 0.100074,0.216975 0.05428,0.114977 0.138124,0.305656 0,0 -2.795669,1.557649 -2.795669,1.557649 l 0,0 c -0.06326,-0.187574 -0.02764,-0.08747 -0.108414,-0.29977 -0.198222,-0.456957 -0.462857,-0.878847 -0.79802,-1.249101 0,0 2.75479,-1.634829 2.75479,-1.634829 z"
       inkscape:connector-curvature="0" />
  </g>
</svg>
